<svg xmlns="http://www.w3.org/2000/svg" width="163.5" height="163.544" viewBox="0 0 163.5 163.544">
  <path id="Path_41" data-name="Path 41" d="M121.936,396.6c-5.208,0-10.42-.06-15.628.04-1.437,0-1.716-.408-1.706-1.761.055-10.107,0-20.218.055-30.34a4.293,4.293,0,0,0-1.368-3.4c-7.2-7.1-14.3-14.3-21.5-21.387-1.069-1.055-.995-1.587.03-2.581,7.237-7.152,14.395-14.379,21.617-21.541a3.706,3.706,0,0,0,1.219-2.915c-.045-10.171,0-20.343-.065-30.514,0-1.6.468-1.91,1.99-1.9,10.107.065,20.219,0,30.341.06a3.979,3.979,0,0,0,3.1-1.273c7.2-7.272,14.469-14.478,21.666-21.755.9-.91,1.348-.95,2.278,0,7.192,7.281,14.459,14.484,21.661,21.755a3.935,3.935,0,0,0,3.084,1.283c10.107-.045,20.219,0,30.341-.065,1.592,0,1.94.5,1.93,1.99-.065,10.047,0,20.1-.06,30.146a4.108,4.108,0,0,0,1.318,3.258c7.1,7.013,14.116,14.125,21.239,21.124,1.253,1.238,1.492,1.86.075,3.238-7.153,6.963-14.146,14.1-21.249,21.118a4.327,4.327,0,0,0-1.383,3.422c.05,10.052,0,20.1.065,30.146,0,1.592-.453,1.915-1.965,1.9-10.172-.07-20.343,0-30.515-.06a3.482,3.482,0,0,0-2.755,1.154c-7.118,7.177-14.3,14.29-21.388,21.487-1.129,1.149-1.741,1.343-2.984.07-7.123-7.262-14.365-14.424-21.527-21.626a3.277,3.277,0,0,0-2.636-1.1C132.107,396.635,127.019,396.6,121.936,396.6Z" transform="translate(-81.02 -256.638)" fill="#2d2d2d" opacity="0.7"/>
</svg>
