<svg xmlns="http://www.w3.org/2000/svg" width="246" height="201.239" viewBox="0 0 246 201.239">
  <g id="Group_1" data-name="Group 1" transform="translate(-74 -250.761)">
    <text id="الأربعين_النووية" data-name="الأربعين النووية" transform="translate(74 437)" fill="#fff" font-size="36" font-family="Tajawal-Bold, Tajawal" font-weight="700"><tspan x="0" y="0">الأربعين النووية</tspan></text>
    <g id="islamic" transform="translate(108.493 248.179)">
      <path id="Path_2" data-name="Path 2" d="M112.63,364.774c-4.023,0-8.05-.046-12.074.031-1.111,0-1.326-.315-1.318-1.36.042-7.808,0-15.62.042-23.44a3.316,3.316,0,0,0-1.057-2.628c-5.56-5.487-11.044-11.048-16.608-16.523-.826-.815-.769-1.226.023-1.994,5.591-5.526,11.121-11.109,16.7-16.642a2.863,2.863,0,0,0,.941-2.252c-.035-7.858,0-15.716-.05-23.575,0-1.237.361-1.476,1.537-1.468,7.808.05,15.62,0,23.44.046a3.074,3.074,0,0,0,2.394-.984c5.564-5.618,11.178-11.186,16.739-16.808.7-.7,1.041-.734,1.76,0,5.556,5.626,11.171,11.19,16.735,16.808a3.04,3.04,0,0,0,2.382.991c7.808-.035,15.62,0,23.44-.05,1.23,0,1.5.384,1.491,1.537-.05,7.762,0,15.528-.046,23.29a3.174,3.174,0,0,0,1.018,2.517c5.487,5.418,10.905,10.913,16.408,16.32.968.957,1.153,1.437.058,2.5-5.526,5.38-10.928,10.894-16.416,16.316a3.343,3.343,0,0,0-1.068,2.644c.038,7.766,0,15.528.05,23.29,0,1.23-.35,1.479-1.518,1.472-7.858-.054-15.716,0-23.575-.046a2.69,2.69,0,0,0-2.129.892c-5.5,5.545-11.048,11.04-16.523,16.6-.872.888-1.345,1.038-2.306.054-5.5-5.61-11.1-11.144-16.631-16.708a2.532,2.532,0,0,0-2.037-.849C120.488,364.8,116.557,364.774,112.63,364.774Z" transform="translate(-64.462 -244.409)" fill="#fff"/>
      <path id="Path_5" data-name="Path 5" d="M159.1,262.545a2.133,2.133,0,1,1,2.148-2.083A2.186,2.186,0,0,1,159.1,262.545Z" transform="translate(-111.234 -245.42)" fill="#f9ba84"/>
      <path id="Path_6" data-name="Path 6" d="M393.262,499.926a2.125,2.125,0,1,1-2.021-2.19A2.179,2.179,0,0,1,393.262,499.926Z" transform="translate(-254.103 -392.86)" fill="#f9ba84"/>
      <path id="Path_7" data-name="Path 7" d="M310.128,262.552a2.133,2.133,0,0,1-.181-4.262,2.348,2.348,0,0,1,2.271,2.133A2.2,2.2,0,0,1,310.128,262.552Z" transform="translate(-204.163 -245.426)" fill="#f9ba84"/>
      <path id="Path_8" data-name="Path 8" d="M393.215,330.473a1.979,1.979,0,0,1-2.052,2.1,2.056,2.056,0,1,1-.119-4.1A2.094,2.094,0,0,1,393.215,330.473Z" transform="translate(-254.057 -288.636)" fill="#f9ba84"/>
      <path id="Path_9" data-name="Path 9" d="M328.735,564.2a1.967,1.967,0,0,1,2,2.136,2.056,2.056,0,1,1-4.1-.115,1.956,1.956,0,0,1,2.106-2.021Z" transform="translate(-215.687 -433.783)" fill="#f9ba83"/>
      <path id="Path_10" data-name="Path 10" d="M155.385,567.91a2.14,2.14,0,0,1,2.087,2.106,2.029,2.029,0,0,1-2.16,2,2.056,2.056,0,1,1,.073-4.1Z" transform="translate(-108.888 -436.067)" fill="#f9ba84"/>
      <path id="Path_11" data-name="Path 11" d="M89.315,343.695a1.952,1.952,0,0,1-2.1-2.033,1.866,1.866,0,0,1,1.991-2.083,1.907,1.907,0,0,1,2.11,1.987,1.967,1.967,0,0,1-2,2.129Z" transform="translate(-68.276 -295.479)" fill="#f9ba83"/>
      <path id="Path_12" data-name="Path 12" d="M93.015,483.67a1.921,1.921,0,0,1-2.1-2,1.876,1.876,0,0,1,1.975-2.1,2.052,2.052,0,1,1,.123,4.1Z" transform="translate(-70.554 -381.676)" fill="#f9ba83"/>
      <path id="Path_13" data-name="Path 13" d="M171.285,318.21c1.948-1.979,3.931-3.923,5.829-5.948.7-.738,1.091-.569,1.714.061,3.531,3.577,7.113,7.109,10.64,10.69a2.851,2.851,0,0,0,2.259.945c4.788-.042,9.58.054,14.364-.061,1.537-.035,1.81.465,1.787,1.86-.081,4.788,0,9.58-.05,14.368a2.717,2.717,0,0,0,.892,2.14c3.547,3.493,7.024,7.059,10.594,10.529.88.857.811,1.322-.031,2.133-3.378,3.255-6.682,6.582-10.018,9.887a4.5,4.5,0,0,1-2.505.438H182.044a13.77,13.77,0,0,0-1.868.058c-.588.077-1.237.208-1.21.945s.68.834,1.264.911a13.563,13.563,0,0,0,1.721.05h24.266c1.564.077,1.718.231,1.722,1.756v13.5c0,.415.138.865-.161,1.249-5.314,0-10.633.05-15.947,0a3.174,3.174,0,0,0-2.5,1.057c-3.42,3.489-6.917,6.894-10.325,10.4-.822.849-1.241.734-1.99-.038-2.329-2.409-4.738-4.742-7.117-7.1.1-.769.769-.6,1.214-.646.9-.085,1.814,0,2.717-.046.7-.042,1.66.042,1.672-.911s-.961-1.057-1.718-1.091c-1.668-.077-3.339,0-5-.031a3.065,3.065,0,0,1-2.056-.434,2.525,2.525,0,0,0-2.425-1.153c-4.976.054-9.952,0-14.925.05-1.072,0-1.391-.288-1.38-1.368.058-4.976,0-9.952.046-14.929a3,3,0,0,0-1-2.379c-3.547-3.489-7.051-7.024-10.571-10.54-.434-.438-.953-.738-.207-1.46,3.458-3.362,6.874-6.786,10.306-10.191a4.205,4.205,0,0,1,2.363-.43h15.371a5.894,5.894,0,0,0,1.99-.181c.476-.165.888-.438.822-1.018s-.5-.649-.941-.719a10.294,10.294,0,0,0-1.575-.065H150.25c-.769,0-1.537.134-2.179-.469,0-5,0-9.964-.054-14.948,0-1.022.427-1.153,1.291-1.153,4.646.031,9.3-.058,13.937.054a4.159,4.159,0,0,0,3.843-1.637,7.929,7.929,0,0,1,1.049-.976,5.193,5.193,0,0,1,2.943-.384,28.184,28.184,0,0,0,3.013-.054c.646-.065,1.3-.242,1.249-1.076-.046-.749-.665-.849-1.26-.9s-1.153.019-1.718-.061C171.907,318.813,171.327,318.905,171.285,318.21Z" transform="translate(-98.247 -278.359)" fill="#ffd434"/>
      <path id="Path_14" data-name="Path 14" d="M275.7,468.694c0-4.88-.019-9.764.046-14.644,0-1.153-.315-1.456-1.449-1.449-8.454.042-16.938.023-25.411.023h-1c-.949,0-1.672-.469-1.7-1.372-.035-1,.7-1.5,1.714-1.5h9.184l20.1.019a4,4,0,0,0-1.2,3.458c.065,4.669.035,9.341,0,14.01C275.97,467.726,276.2,468.291,275.7,468.694Z" transform="translate(-166.154 -363.315)" fill="#f4ad09"/>
      <path id="Path_15" data-name="Path 15" d="M165.127,385.32c5.875,0,11.751.027,17.626,0,1.022,0,2.106,0,2.09,1.307,0,1.23-1.011,1.587-2.14,1.583H163.64C164.274,387.318,165.408,386.68,165.127,385.32Z" transform="translate(-115.334 -323.643)" fill="#f4ad09"/>
      <path id="Path_16" data-name="Path 16" d="M216.1,502.08c2.336,0,4.673,0,7.009.035a4.073,4.073,0,0,1,1.264.142c.653.223,1.253.607,1.153,1.426a1.387,1.387,0,0,1-1.468,1.287c-1.153.027-2.306,0-3.435,0-.453,0-.964-.177-1.349.25a15.755,15.755,0,0,1-3.174-3.139Z" transform="translate(-147.635 -395.536)" fill="#f4ad09"/>
      <path id="Path_17" data-name="Path 17" d="M222.957,328.52c.965.615,2.029.207,3.043.273.949.058,1.537.357,1.587,1.391s-.638,1.456-1.514,1.476c-2.087.054-4.177,0-6.264,0a22.613,22.613,0,0,1,3.147-3.139Z" transform="translate(-149.919 -288.669)" fill="#f4ad09"/>
      <path id="Path_18" data-name="Path 18" d="M189.716,416.82h12.2c.984,0,1.944.069,1.887,1.353-.046,1.087-.8,1.537-1.86,1.537h-24.4c-1.122,0-1.921-.384-1.875-1.625s.922-1.26,1.848-1.257Q183.614,416.828,189.716,416.82Z" transform="translate(-122.738 -343.039)" fill="#f4ad09"/>
      <path id="Path_19" data-name="Path 19" d="M144.556,313.351c.477-.484.962-.961,1.427-1.456.17-.181.267-.139.42.015.865.876,1.741,1.74,2.605,2.617a.7.7,0,0,0,.553.231c1.172-.01,2.345.013,3.517-.015.376-.008.443.114.437.455-.02,1.172,0,2.345-.012,3.518a.665.665,0,0,0,.218.524c.868.855,1.72,1.728,2.594,2.578.215.21.2.324-.008.522-.827.8-1.636,1.612-2.453,2.421a1.1,1.1,0,0,1-.613.107H147.19a3.369,3.369,0,0,0-.457.014c-.144.019-.3.051-.3.231s.167.2.31.223a3.316,3.316,0,0,0,.421.012h5.941c.383.019.421.056.421.43v3.306c0,.1.034.212-.04.306-1.3,0-2.6.012-3.9,0a.777.777,0,0,0-.612.259c-.837.854-1.693,1.688-2.528,2.547-.2.208-.3.18-.487-.009-.57-.59-1.16-1.161-1.742-1.739.024-.188.188-.148.3-.158.221-.021.444,0,.665-.011.171-.01.406.01.409-.223s-.235-.259-.421-.267c-.408-.019-.818,0-1.223-.008a.75.75,0,0,1-.5-.106.618.618,0,0,0-.594-.282c-1.218.013-2.437,0-3.654.012-.262,0-.341-.071-.338-.335.014-1.218,0-2.437.011-3.655a.735.735,0,0,0-.246-.582c-.868-.854-1.726-1.72-2.588-2.581-.106-.107-.233-.181-.051-.358.847-.823,1.683-1.661,2.523-2.495a1.03,1.03,0,0,1,.579-.105h3.763a1.443,1.443,0,0,0,.487-.044c.117-.04.217-.107.2-.249s-.121-.159-.23-.176a2.518,2.518,0,0,0-.386-.016h-3.514c-.188,0-.376.033-.533-.115,0-1.223,0-2.439-.013-3.66,0-.25.1-.282.316-.282,1.137.008,2.276-.014,3.412.013a1.018,1.018,0,0,0,.941-.4,1.943,1.943,0,0,1,.257-.239,1.271,1.271,0,0,1,.721-.094,6.9,6.9,0,0,0,.738-.013c.158-.016.318-.059.306-.263-.011-.183-.163-.208-.309-.22s-.282,0-.421-.015C144.708,313.5,144.566,313.521,144.556,313.351Z" transform="translate(-125.186 -189.52)" fill="#f4ad09"/>
      <path id="Path_20" data-name="Path 20" d="M144.556,313.351c.477-.484.962-.961,1.427-1.456.17-.181.267-.139.42.015.865.876,1.741,1.74,2.605,2.617a.7.7,0,0,0,.553.231c1.172-.01,2.345.013,3.517-.015.376-.008.443.114.437.455-.02,1.172,0,2.345-.012,3.518a.665.665,0,0,0,.218.524c.868.855,1.72,1.728,2.594,2.578.215.21.2.324-.008.522-.827.8-1.636,1.612-2.453,2.421a1.1,1.1,0,0,1-.613.107H147.19a3.369,3.369,0,0,0-.457.014c-.144.019-.3.051-.3.231s.167.2.31.223a3.316,3.316,0,0,0,.421.012h5.941c.383.019.421.056.421.43v3.306c0,.1.034.212-.04.306-1.3,0-2.6.012-3.9,0a.777.777,0,0,0-.612.259c-.837.854-1.693,1.688-2.528,2.547-.2.208-.3.18-.487-.009-.57-.59-1.16-1.161-1.742-1.739.024-.188.188-.148.3-.158.221-.021.444,0,.665-.011.171-.01.406.01.409-.223s-.235-.259-.421-.267c-.408-.019-.818,0-1.223-.008a.75.75,0,0,1-.5-.106.618.618,0,0,0-.594-.282c-1.218.013-2.437,0-3.654.012-.262,0-.341-.071-.338-.335.014-1.218,0-2.437.011-3.655a.735.735,0,0,0-.246-.582c-.868-.854-1.726-1.72-2.588-2.581-.106-.107-.233-.181-.051-.358.847-.823,1.683-1.661,2.523-2.495a1.03,1.03,0,0,1,.579-.105h3.763a1.443,1.443,0,0,0,.487-.044c.117-.04.217-.107.2-.249s-.121-.159-.23-.176a2.518,2.518,0,0,0-.386-.016h-3.514c-.188,0-.376.033-.533-.115,0-1.223,0-2.439-.013-3.66,0-.25.1-.282.316-.282,1.137.008,2.276-.014,3.412.013a1.018,1.018,0,0,0,.941-.4,1.943,1.943,0,0,1,.257-.239,1.271,1.271,0,0,1,.721-.094,6.9,6.9,0,0,0,.738-.013c.158-.016.318-.059.306-.263-.011-.183-.163-.208-.309-.22s-.282,0-.421-.015C144.708,313.5,144.566,313.521,144.556,313.351Z" transform="translate(-9.159 -309.194)" fill="#f4ad09"/>
    </g>
    <path id="Path_22" data-name="Path 22" d="M144.556,313.351c.477-.484.962-.961,1.427-1.456.17-.181.267-.139.42.015.865.876,1.741,1.74,2.605,2.617a.7.7,0,0,0,.553.231c1.172-.01,2.345.013,3.517-.015.376-.008.443.114.437.455-.02,1.172,0,2.345-.012,3.518a.665.665,0,0,0,.218.524c.868.855,1.72,1.728,2.594,2.578.215.21.2.324-.008.522-.827.8-1.636,1.612-2.453,2.421a1.1,1.1,0,0,1-.613.107H147.19a3.369,3.369,0,0,0-.457.014c-.144.019-.3.051-.3.231s.167.2.31.223a3.316,3.316,0,0,0,.421.012h5.941c.383.019.421.056.421.43v3.306c0,.1.034.212-.04.306-1.3,0-2.6.012-3.9,0a.777.777,0,0,0-.612.259c-.837.854-1.693,1.688-2.528,2.547-.2.208-.3.18-.487-.009-.57-.59-1.16-1.161-1.742-1.739.024-.188.188-.148.3-.158.221-.021.444,0,.665-.011.171-.01.406.01.409-.223s-.235-.259-.421-.267c-.408-.019-.818,0-1.223-.008a.75.75,0,0,1-.5-.106.618.618,0,0,0-.594-.282c-1.218.013-2.437,0-3.654.012-.262,0-.341-.071-.338-.335.014-1.218,0-2.437.011-3.655a.735.735,0,0,0-.246-.582c-.868-.854-1.726-1.72-2.588-2.581-.106-.107-.233-.181-.051-.358.847-.823,1.683-1.661,2.523-2.495a1.03,1.03,0,0,1,.579-.105h3.763a1.443,1.443,0,0,0,.487-.044c.117-.04.217-.107.2-.249s-.121-.159-.23-.176a2.518,2.518,0,0,0-.386-.016h-3.514c-.188,0-.376.033-.533-.115,0-1.223,0-2.439-.013-3.66,0-.25.1-.282.316-.282,1.137.008,2.276-.014,3.412.013a1.018,1.018,0,0,0,.941-.4,1.943,1.943,0,0,1,.257-.239,1.271,1.271,0,0,1,.721-.094,6.9,6.9,0,0,0,.738-.013c.158-.016.318-.059.306-.263-.011-.183-.163-.208-.309-.22s-.282,0-.421-.015C144.708,313.5,144.566,313.521,144.556,313.351Z" transform="translate(-16.693 58.659)" fill="#f4ad09"/>
    <text id="الأربعين_النووية-2" data-name="الأربعين النووية" transform="translate(74 437)" fill="#fff" font-size="36" font-family="Tajawal-Bold, Tajawal" font-weight="700"><tspan x="0" y="0">الأربعين النووية</tspan></text>
  </g>
</svg>
