<svg xmlns="http://www.w3.org/2000/svg" width="53.622" height="55.048" viewBox="0 0 53.622 55.048">
  <g id="Group_10" data-name="Group 10" transform="translate(-242.447 -33.952)">
    <g id="islamic" transform="translate(242.447 33.952)">
      <path id="Path_2" data-name="Path 2" d="M93.428,299.084c-1.579,0-3.16-.018-4.739.012-.436,0-.52-.124-.517-.534.017-3.065,0-6.131.017-9.2a1.3,1.3,0,0,0-.415-1.032c-2.183-2.154-4.335-4.336-6.519-6.486-.324-.32-.3-.481.009-.783,2.195-2.169,4.365-4.361,6.555-6.533a1.124,1.124,0,0,0,.37-.884c-.014-3.085,0-6.169-.02-9.254,0-.486.142-.579.6-.576,3.065.02,6.131,0,9.2.018a1.207,1.207,0,0,0,.94-.386c2.184-2.205,4.388-4.391,6.57-6.6.273-.276.409-.288.691,0,2.181,2.208,4.385,4.392,6.569,6.6a1.193,1.193,0,0,0,.935.389c3.065-.014,6.131,0,9.2-.02.483,0,.588.151.585.6-.02,3.047,0,6.1-.018,9.142a1.246,1.246,0,0,0,.4.988c2.154,2.127,4.281,4.284,6.441,6.406.38.376.452.564.023.982-2.169,2.112-4.29,4.276-6.444,6.4a1.312,1.312,0,0,0-.419,1.038c.015,3.048,0,6.1.02,9.142,0,.483-.137.581-.6.578-3.085-.021-6.169,0-9.254-.018a1.056,1.056,0,0,0-.836.35c-2.158,2.177-4.337,4.333-6.486,6.516-.342.348-.528.407-.905.021-2.16-2.2-4.356-4.374-6.528-6.558a.994.994,0,0,0-.8-.333C96.512,299.093,94.969,299.084,93.428,299.084Z" transform="translate(-78.722 -252.85)" fill="#49c649"/>
      <path id="Path_5" data-name="Path 5" d="M157.812,259.954a.837.837,0,1,1,.843-.818A.858.858,0,0,1,157.812,259.954Z" transform="translate(-143.226 -254.245)" fill="#f9ba84"/>
      <path id="Path_6" data-name="Path 6" d="M390.681,498.594a.834.834,0,1,1-.793-.86A.855.855,0,0,1,390.681,498.594Z" transform="translate(-340.259 -457.581)" fill="#f9ba84"/>
      <path id="Path_7" data-name="Path 7" d="M308.778,259.963a.837.837,0,0,1-.071-1.673.922.922,0,0,1,.891.837A.863.863,0,0,1,308.778,259.963Z" transform="translate(-271.385 -254.254)" fill="#f9ba84"/>
      <path id="Path_8" data-name="Path 8" d="M390.616,329.254a.777.777,0,0,1-.805.824.807.807,0,1,1-.047-1.611A.822.822,0,0,1,390.616,329.254Z" transform="translate(-340.194 -313.845)" fill="#f9ba84"/>
      <path id="Path_9" data-name="Path 9" d="M327.451,564.2a.772.772,0,0,1,.784.839.807.807,0,1,1-1.611-.045.768.768,0,0,1,.827-.793Z" transform="translate(-287.278 -514.018)" fill="#f9ba83"/>
      <path id="Path_10" data-name="Path 10" d="M154.041,567.907a.84.84,0,0,1,.819.827.8.8,0,0,1-.848.784.807.807,0,1,1,.029-1.611Z" transform="translate(-139.991 -517.168)" fill="#f9ba84"/>
      <path id="Path_11" data-name="Path 11" d="M88.039,341.194a.766.766,0,0,1-.824-.8.732.732,0,0,1,.781-.818.748.748,0,0,1,.828.78.772.772,0,0,1-.786.836Z" transform="translate(-83.982 -323.281)" fill="#f9ba83"/>
      <path id="Path_12" data-name="Path 12" d="M91.739,481.179a.754.754,0,0,1-.824-.784.736.736,0,0,1,.775-.825.806.806,0,1,1,.048,1.609Z" transform="translate(-87.124 -442.157)" fill="#f9ba83"/>
      <path id="Path_13" data-name="Path 13" d="M149.783,314.3c.765-.777,1.543-1.54,2.288-2.335.273-.29.428-.223.673.024,1.386,1.4,2.792,2.79,4.177,4.2a1.119,1.119,0,0,0,.887.371c1.879-.017,3.76.021,5.638-.024.6-.014.71.182.7.73-.032,1.879,0,3.76-.02,5.64a1.067,1.067,0,0,0,.35.84c1.392,1.371,2.757,2.771,4.159,4.133.345.336.318.519-.012.837-1.326,1.278-2.623,2.584-3.932,3.881a1.766,1.766,0,0,1-.983.172h-9.7a5.394,5.394,0,0,0-.733.023c-.231.03-.486.081-.475.371s.267.327.5.357a5.336,5.336,0,0,0,.676.02H163.5c.614.03.674.09.676.689v5.3c0,.163.054.339-.063.49-2.086,0-4.174.02-6.26,0a1.246,1.246,0,0,0-.982.415c-1.342,1.37-2.715,2.706-4.053,4.083-.323.333-.487.288-.781-.015-.914-.946-1.86-1.861-2.793-2.787.039-.3.3-.237.477-.253.354-.033.712,0,1.066-.018.275-.017.652.017.656-.357s-.377-.415-.674-.428c-.655-.03-1.311,0-1.961-.012a1.2,1.2,0,0,1-.807-.17.991.991,0,0,0-.952-.452c-1.953.021-3.907,0-5.858.02-.421,0-.546-.113-.541-.537.023-1.953,0-3.907.018-5.86a1.178,1.178,0,0,0-.394-.934c-1.392-1.37-2.768-2.757-4.149-4.137-.17-.172-.374-.29-.081-.573,1.358-1.32,2.7-2.664,4.045-4a1.651,1.651,0,0,1,.928-.169h6.033a2.313,2.313,0,0,0,.781-.071c.187-.065.348-.172.323-.4s-.195-.255-.37-.282a4.041,4.041,0,0,0-.618-.026h-5.634c-.3,0-.6.053-.855-.184,0-1.961,0-3.911-.021-5.867,0-.4.167-.453.507-.453,1.824.012,3.649-.023,5.471.021a1.632,1.632,0,0,0,1.508-.643,3.111,3.111,0,0,1,.412-.383,2.038,2.038,0,0,1,1.155-.151,11.064,11.064,0,0,0,1.183-.021c.253-.026.51-.1.49-.422-.018-.294-.261-.333-.495-.353s-.453.008-.674-.024C150.028,314.538,149.8,314.574,149.783,314.3Z" transform="translate(-125.315 -299.672)" fill="#ffd434"/>
      <path id="Path_14" data-name="Path 14" d="M257.765,457.186c0-1.916-.008-3.833.018-5.748,0-.453-.124-.572-.569-.569-3.318.017-6.649.009-9.975.009h-.394c-.373,0-.656-.184-.668-.538-.014-.391.275-.59.673-.59h3.6l7.889.008a1.569,1.569,0,0,0-.469,1.357c.026,1.833.014,3.667,0,5.5C257.872,456.806,257.964,457.028,257.765,457.186Z" transform="translate(-218.967 -416.835)" fill="#f4ad09"/>
      <path id="Path_15" data-name="Path 15" d="M164.224,385.32c2.306,0,4.613.011,6.919,0,.4,0,.827,0,.821.513,0,.483-.4.623-.84.622H163.64C163.889,386.1,164.334,385.854,164.224,385.32Z" transform="translate(-148.88 -362.123)" fill="#f4ad09"/>
      <path id="Path_16" data-name="Path 16" d="M216.1,502.08c.917,0,1.834,0,2.751.014a1.6,1.6,0,0,1,.5.056c.256.088.492.238.453.56a.545.545,0,0,1-.576.505c-.452.011-.9,0-1.348,0-.178,0-.379-.069-.529.1A6.185,6.185,0,0,1,216.1,502.08Z" transform="translate(-193.427 -461.272)" fill="#f4ad09"/>
      <path id="Path_17" data-name="Path 17" d="M221.045,328.52c.379.241.8.081,1.195.107.373.023.6.14.623.546s-.25.572-.594.579c-.819.021-1.64,0-2.459,0A8.874,8.874,0,0,1,221.045,328.52Z" transform="translate(-196.577 -313.891)" fill="#f4ad09"/>
      <path id="Path_18" data-name="Path 18" d="M181.18,416.82h4.788c.386,0,.763.027.741.531-.018.427-.314.6-.73.6H176.4c-.44,0-.754-.151-.736-.638s.362-.495.725-.493Z" transform="translate(-159.091 -388.872)" fill="#f4ad09"/>
      <path id="Path_19" data-name="Path 19" d="M139.291,312.394c.187-.19.378-.377.56-.572.067-.071.1-.055.165.006.339.344.684.683,1.023,1.027a.274.274,0,0,0,.217.091c.46,0,.921.005,1.38-.006.148,0,.174.045.172.179-.008.46,0,.921,0,1.381a.261.261,0,0,0,.086.206c.341.336.675.678,1.018,1.012.085.082.078.127,0,.2-.325.313-.642.633-.963.95a.433.433,0,0,1-.241.042h-2.375a1.314,1.314,0,0,0-.179.005c-.057.007-.119.02-.116.091s.065.08.121.088a1.3,1.3,0,0,0,.165,0h2.332c.15.007.165.022.165.169v1.3c0,.04.013.083-.016.12-.511,0-1.022,0-1.533,0a.3.3,0,0,0-.24.1c-.329.335-.665.662-.992,1-.079.082-.119.071-.191,0-.224-.232-.455-.456-.684-.682.01-.074.074-.058.117-.062.087-.008.174,0,.261,0,.067,0,.16,0,.161-.088s-.092-.1-.165-.1c-.16-.007-.321,0-.48,0a.294.294,0,0,1-.2-.042.243.243,0,0,0-.233-.111c-.478.005-.957,0-1.434,0-.1,0-.134-.028-.133-.131.006-.478,0-.956,0-1.435a.288.288,0,0,0-.1-.229c-.341-.335-.678-.675-1.016-1.013-.042-.042-.092-.071-.02-.14.332-.323.661-.652.99-.979a.4.4,0,0,1,.227-.041h1.477a.566.566,0,0,0,.191-.017c.046-.016.085-.042.079-.1s-.048-.062-.09-.069a.98.98,0,0,0-.151-.006H137.27c-.074,0-.148.013-.209-.045,0-.48,0-.958-.005-1.437,0-.1.041-.111.124-.111.446,0,.893-.005,1.339.005a.4.4,0,0,0,.369-.157.761.761,0,0,1,.1-.094.5.5,0,0,1,.283-.037,2.7,2.7,0,0,0,.29-.005c.062-.006.125-.023.12-.1s-.064-.082-.121-.086-.111,0-.165-.006S139.3,312.461,139.291,312.394Z" transform="translate(-135.89 -264.8)" fill="#f4ad09"/>
      <path id="Path_20" data-name="Path 20" d="M139.291,312.394c.187-.19.378-.377.56-.572.067-.071.1-.055.165.006.339.344.684.683,1.023,1.027a.274.274,0,0,0,.217.091c.46,0,.921.005,1.38-.006.148,0,.174.045.172.179-.008.46,0,.921,0,1.381a.261.261,0,0,0,.086.206c.341.336.675.678,1.018,1.012.085.082.078.127,0,.2-.325.313-.642.633-.963.95a.433.433,0,0,1-.241.042h-2.375a1.314,1.314,0,0,0-.179.005c-.057.007-.119.02-.116.091s.065.08.121.088a1.3,1.3,0,0,0,.165,0h2.332c.15.007.165.022.165.169v1.3c0,.04.013.083-.016.12-.511,0-1.022,0-1.533,0a.3.3,0,0,0-.24.1c-.329.335-.665.662-.992,1-.079.082-.119.071-.191,0-.224-.232-.455-.456-.684-.682.01-.074.074-.058.117-.062.087-.008.174,0,.261,0,.067,0,.16,0,.161-.088s-.092-.1-.165-.1c-.16-.007-.321,0-.48,0a.294.294,0,0,1-.2-.042.243.243,0,0,0-.233-.111c-.478.005-.957,0-1.434,0-.1,0-.134-.028-.133-.131.006-.478,0-.956,0-1.435a.288.288,0,0,0-.1-.229c-.341-.335-.678-.675-1.016-1.013-.042-.042-.092-.071-.02-.14.332-.323.661-.652.99-.979a.4.4,0,0,1,.227-.041h1.477a.566.566,0,0,0,.191-.017c.046-.016.085-.042.079-.1s-.048-.062-.09-.069a.98.98,0,0,0-.151-.006H137.27c-.074,0-.148.013-.209-.045,0-.48,0-.958-.005-1.437,0-.1.041-.111.124-.111.446,0,.893-.005,1.339.005a.4.4,0,0,0,.369-.157.761.761,0,0,1,.1-.094.5.5,0,0,1,.283-.037,2.7,2.7,0,0,0,.29-.005c.062-.006.125-.023.12-.1s-.064-.082-.121-.086-.111,0-.165-.006S139.3,312.461,139.291,312.394Z" transform="translate(-90.346 -311.776)" fill="#f4ad09"/>
    </g>
  </g>
</svg>
