<svg xmlns="http://www.w3.org/2000/svg" xmlns:xlink="http://www.w3.org/1999/xlink" width="375" height="812" viewBox="0 0 375 812">
  <defs>
    <clipPath id="clip-splash">
      <rect width="375" height="812"/>
    </clipPath>
  </defs>
  <g id="splash" clip-path="url(#clip-splash)">
    <rect width="375" height="812" fill="#49c649"/>
    <g id="Group_3" data-name="Group 3">
      <g id="Group_2" data-name="Group 2">
        <path id="Subtraction_6" data-name="Subtraction 6" d="M152.787,305.352c-.783,0-1.624-.5-2.729-1.635-8.58-8.747-17.394-17.556-25.917-26.076-4.686-4.684-9.532-9.528-14.282-14.3a6.126,6.126,0,0,0-4.58-2.061c-.114,0-.229,0-.342.01-3.957.042-8.139.061-13.562.061q-3.749,0-7.493-.008t-7.477-.008c-2.645,0-5.336-.008-7.938-.016h-.02c-2.607-.008-5.3-.016-7.96-.016-5.211,0-9.426.034-13.264.107a3.5,3.5,0,0,1-2.564-.652,3.674,3.674,0,0,1-.623-2.635c.051-9.435.051-19.032.051-28.314s0-18.885.051-28.335a7.988,7.988,0,0,0-2.554-6.351c-6.393-6.308-12.849-12.761-19.093-19-6.882-6.879-14-13.991-21.05-20.929-1.012-1-1.442-1.718-1.44-2.4s.436-1.387,1.494-2.415c7.369-7.281,14.812-14.723,22.011-21.92,6.012-6.01,12.223-12.219,18.355-18.3a6.893,6.893,0,0,0,2.275-5.442C44.1,96.171,44.1,87.492,44.092,79.1v-.013c0-10.276-.009-20.9-.075-31.351,0-3.012.938-3.548,3.578-3.548h.135c7.957.05,15.985.057,23.476.057h5.36c9.12,0,18.546,0,27.822.054q.167.007.333.007a7.454,7.454,0,0,0,5.454-2.385c6.494-6.556,13.12-13.188,19.528-19.6,6.871-6.876,13.975-13.987,20.93-21.018.916-.925,1.532-1.3,2.127-1.3s1.222.377,2.128,1.3c7.183,7.271,14.512,14.606,21.6,21.7,6.19,6.2,12.585,12.6,18.849,18.918a7.365,7.365,0,0,0,5.436,2.4q.161,0,.323-.007c8.506-.038,17.157-.042,25.523-.046h.013c10.2,0,20.743-.009,31.122-.076,1.485,0,2.343.227,2.872.759s.741,1.39.73,2.955c-.061,9.548-.06,19.257-.059,28.648v.017c0,9.054,0,18.415-.052,27.62a7.644,7.644,0,0,0,2.463,6.084c6.091,6.013,12.242,12.16,18.189,18.1,7.016,7.012,14.271,14.262,21.47,21.335,1.236,1.221,1.951,2.118,1.947,3.091,0,.843-.544,1.727-1.807,2.953-7.908,7.7-15.842,15.64-23.515,23.321-5.285,5.291-10.749,10.76-16.164,16.109a8.051,8.051,0,0,0-2.582,6.388c.043,8.719.047,17.582.05,26.153v.018c0,9.873.007,20.079.072,30.117,0,3.019-.931,3.556-3.554,3.557H257.7c-7.979-.056-16.091-.064-23.669-.064H222.641c-6.961,0-14.436-.006-21.926-.049-.1,0-.2-.007-.3-.007a6.5,6.5,0,0,0-4.84,2.16c-5.581,5.626-11.276,11.325-16.783,16.836-7.612,7.616-15.479,15.488-23.157,23.283C154.588,304.646,153.706,305.352,152.787,305.352Zm-31.219-81.408a4.011,4.011,0,0,1,3,1.353c3.063,3.079,6.19,6.2,9.214,9.227,5.648,5.646,11.483,11.477,17.165,17.271.736.752,1.272,1.072,1.793,1.072.6,0,1.183-.463,1.864-1.159,5.017-5.093,10.158-10.236,15.129-15.211l.013-.013c3.631-3.633,7.386-7.39,11.068-11.1A4.281,4.281,0,0,1,184,223.963c.065,0,.131,0,.2,0,5.225.03,10.362.033,16.054.033h6.137c4.8,0,9.966.005,15.2.042h.072c1.724,0,2.336-.353,2.336-2.334-.042-6.56-.044-13.23-.046-19.68v-.035c0-5.644,0-11.48-.032-17.221a5.279,5.279,0,0,1,1.692-4.193c3.562-3.518,7.148-7.108,10.616-10.58,5.032-5.037,10.236-10.246,15.423-15.3.829-.805,1.184-1.385,1.186-1.938,0-.638-.466-1.228-1.278-2.03-4.722-4.639-9.48-9.394-14.081-13.992-3.906-3.9-7.944-7.939-11.945-11.889a5.017,5.017,0,0,1-1.614-3.993c.035-6.035.034-12.156.033-18.075,0-6.177,0-12.565.038-18.861a2.606,2.606,0,0,0-.479-1.939,2.544,2.544,0,0,0-1.885-.5c-6.867.045-13.843.048-20.589.051-5.445,0-11.065.005-16.591.029q-.106,0-.213,0a4.834,4.834,0,0,1-3.568-1.577c-4.108-4.147-8.3-8.344-12.358-12.4l-.009-.009-.012-.012c-4.651-4.655-9.46-9.468-14.165-14.23-.594-.608-1-.856-1.4-.856s-.795.248-1.4.856c-4.591,4.641-9.271,9.325-13.8,13.855-4.183,4.187-8.509,8.516-12.753,12.8a4.888,4.888,0,0,1-3.575,1.564c-.074,0-.147,0-.221-.005-5.294-.032-10.515-.035-16.3-.035h-3.814c-6.068,0-11.541,0-17.065-.037h-.09c-1.733,0-2.349.352-2.349,2.328.045,6.9.048,13.914.051,20.7,0,5.477.005,11.13.029,16.689a4.525,4.525,0,0,1-1.494,3.571c-4.015,3.981-8.069,8.034-11.989,11.954-4.742,4.741-9.645,9.643-14.5,14.44-.7.676-.979,1.135-.981,1.586s.281.922.946,1.577c4.629,4.556,9.294,9.218,13.805,13.727,4.1,4.1,8.336,8.333,12.537,12.477a5.249,5.249,0,0,1,1.677,4.169c-.034,6.2-.034,12.5-.034,18.594s0,12.388-.034,18.579a2.41,2.41,0,0,0,.408,1.73,2.3,2.3,0,0,0,1.683.428c2.509-.048,5.258-.07,8.652-.07,1.727,0,3.484.006,5.183.011h.069c1.715.005,3.488.011,5.249.011q2.443,0,4.888.005t4.9.005c3.578,0,6.335-.012,8.938-.04Q121.455,223.944,121.569,223.944Z" transform="translate(34.843 -197.528)" fill="#fff" opacity="0.49"/>
        <path id="Subtraction_1" data-name="Subtraction 1" d="M152.787,305.352c-.783,0-1.624-.5-2.729-1.635-8.58-8.747-17.394-17.556-25.917-26.076-4.686-4.684-9.532-9.528-14.282-14.3a6.126,6.126,0,0,0-4.58-2.061c-.114,0-.229,0-.342.01-3.957.042-8.139.061-13.562.061q-3.749,0-7.493-.008t-7.477-.008c-2.645,0-5.336-.008-7.938-.016h-.02c-2.607-.008-5.3-.016-7.96-.016-5.211,0-9.426.034-13.264.107a3.5,3.5,0,0,1-2.564-.652,3.674,3.674,0,0,1-.623-2.635c.051-9.435.051-19.032.051-28.314s0-18.885.051-28.335a7.988,7.988,0,0,0-2.554-6.351c-6.393-6.308-12.849-12.761-19.093-19-6.882-6.879-14-13.991-21.05-20.929-1.012-1-1.442-1.718-1.44-2.4s.436-1.387,1.494-2.415c7.369-7.281,14.812-14.723,22.011-21.92,6.012-6.01,12.223-12.219,18.355-18.3a6.893,6.893,0,0,0,2.275-5.442C44.1,96.171,44.1,87.492,44.092,79.1v-.013c0-10.276-.009-20.9-.075-31.351,0-3.012.938-3.548,3.578-3.548h.135c7.957.05,15.985.057,23.476.057h5.36c9.12,0,18.546,0,27.822.054q.167.007.333.007a7.454,7.454,0,0,0,5.454-2.385c6.494-6.556,13.12-13.188,19.528-19.6,6.871-6.876,13.975-13.987,20.93-21.018.916-.925,1.532-1.3,2.127-1.3s1.222.377,2.128,1.3c7.183,7.271,14.512,14.606,21.6,21.7,6.19,6.2,12.585,12.6,18.849,18.918a7.365,7.365,0,0,0,5.436,2.4q.161,0,.323-.007c8.506-.038,17.157-.042,25.523-.046h.013c10.2,0,20.743-.009,31.122-.076,1.485,0,2.343.227,2.872.759s.741,1.39.73,2.955c-.061,9.548-.06,19.257-.059,28.648v.017c0,9.054,0,18.415-.052,27.62a7.644,7.644,0,0,0,2.463,6.084c6.091,6.013,12.242,12.16,18.189,18.1,7.016,7.012,14.271,14.262,21.47,21.335,1.236,1.221,1.951,2.118,1.947,3.091,0,.843-.544,1.727-1.807,2.953-7.908,7.7-15.842,15.64-23.515,23.321-5.285,5.291-10.749,10.76-16.164,16.109a8.051,8.051,0,0,0-2.582,6.388c.043,8.719.047,17.582.05,26.153v.018c0,9.873.007,20.079.072,30.117,0,3.019-.931,3.556-3.554,3.557H257.7c-7.979-.056-16.091-.064-23.669-.064H222.641c-6.961,0-14.436-.006-21.926-.049-.1,0-.2-.007-.3-.007a6.5,6.5,0,0,0-4.84,2.16c-5.581,5.626-11.276,11.325-16.783,16.836-7.612,7.616-15.479,15.488-23.157,23.283C154.588,304.646,153.706,305.352,152.787,305.352Zm-31.219-81.408a4.011,4.011,0,0,1,3,1.353c3.063,3.079,6.19,6.2,9.214,9.227,5.648,5.646,11.483,11.477,17.165,17.271.736.752,1.272,1.072,1.793,1.072.6,0,1.183-.463,1.864-1.159,5.017-5.093,10.158-10.236,15.129-15.211l.013-.013c3.631-3.633,7.386-7.39,11.068-11.1A4.281,4.281,0,0,1,184,223.963c.065,0,.131,0,.2,0,5.225.03,10.362.033,16.054.033h6.137c4.8,0,9.966.005,15.2.042h.072c1.724,0,2.336-.353,2.336-2.334-.042-6.56-.044-13.23-.046-19.68v-.035c0-5.644,0-11.48-.032-17.221a5.279,5.279,0,0,1,1.692-4.193c3.562-3.518,7.148-7.108,10.616-10.58,5.032-5.037,10.236-10.246,15.423-15.3.829-.805,1.184-1.385,1.186-1.938,0-.638-.466-1.228-1.278-2.03-4.722-4.639-9.48-9.394-14.081-13.992-3.906-3.9-7.944-7.939-11.945-11.889a5.017,5.017,0,0,1-1.614-3.993c.035-6.035.034-12.156.033-18.075,0-6.177,0-12.565.038-18.861a2.606,2.606,0,0,0-.479-1.939,2.544,2.544,0,0,0-1.885-.5c-6.867.045-13.843.048-20.589.051-5.445,0-11.065.005-16.591.029q-.106,0-.213,0a4.834,4.834,0,0,1-3.568-1.577c-4.108-4.147-8.3-8.344-12.358-12.4l-.009-.009-.012-.012c-4.651-4.655-9.46-9.468-14.165-14.23-.594-.608-1-.856-1.4-.856s-.795.248-1.4.856c-4.591,4.641-9.271,9.325-13.8,13.855-4.183,4.187-8.509,8.516-12.753,12.8a4.888,4.888,0,0,1-3.575,1.564c-.074,0-.147,0-.221-.005-5.294-.032-10.515-.035-16.3-.035h-3.814c-6.068,0-11.541,0-17.065-.037h-.09c-1.733,0-2.349.352-2.349,2.328.045,6.9.048,13.914.051,20.7,0,5.477.005,11.13.029,16.689a4.525,4.525,0,0,1-1.494,3.571c-4.015,3.981-8.069,8.034-11.989,11.954-4.742,4.741-9.645,9.643-14.5,14.44-.7.676-.979,1.135-.981,1.586s.281.922.946,1.577c4.629,4.556,9.294,9.218,13.805,13.727,4.1,4.1,8.336,8.333,12.537,12.477a5.249,5.249,0,0,1,1.677,4.169c-.034,6.2-.034,12.5-.034,18.594s0,12.388-.034,18.579a2.41,2.41,0,0,0,.408,1.73,2.3,2.3,0,0,0,1.683.428c2.509-.048,5.258-.07,8.652-.07,1.727,0,3.484.006,5.183.011h.069c1.715.005,3.488.011,5.249.011q2.443,0,4.888.005t4.9.005c3.578,0,6.335-.012,8.938-.04Q121.455,223.944,121.569,223.944Z" transform="translate(255.803 -44.852)" fill="#fff" opacity="0.49"/>
        <path id="Subtraction_2" data-name="Subtraction 2" d="M152.787,305.352c-.783,0-1.624-.5-2.729-1.635-8.58-8.747-17.394-17.556-25.917-26.076-4.686-4.684-9.532-9.528-14.282-14.3a6.126,6.126,0,0,0-4.58-2.061c-.114,0-.229,0-.342.01-3.957.042-8.139.061-13.562.061q-3.749,0-7.493-.008t-7.477-.008c-2.645,0-5.336-.008-7.938-.016h-.02c-2.607-.008-5.3-.016-7.96-.016-5.211,0-9.426.034-13.264.107a3.5,3.5,0,0,1-2.564-.652,3.674,3.674,0,0,1-.623-2.635c.051-9.435.051-19.032.051-28.314s0-18.885.051-28.335a7.988,7.988,0,0,0-2.554-6.351c-6.393-6.308-12.849-12.761-19.093-19-6.882-6.879-14-13.991-21.05-20.929-1.012-1-1.442-1.718-1.44-2.4s.436-1.387,1.494-2.415c7.369-7.281,14.812-14.723,22.011-21.92,6.012-6.01,12.223-12.219,18.355-18.3a6.893,6.893,0,0,0,2.275-5.442C44.1,96.171,44.1,87.492,44.092,79.1v-.013c0-10.276-.009-20.9-.075-31.351,0-3.012.938-3.548,3.578-3.548h.135c7.957.05,15.985.057,23.476.057h5.36c9.12,0,18.546,0,27.822.054q.167.007.333.007a7.454,7.454,0,0,0,5.454-2.385c6.494-6.556,13.12-13.188,19.528-19.6,6.871-6.876,13.975-13.987,20.93-21.018.916-.925,1.532-1.3,2.127-1.3s1.222.377,2.128,1.3c7.183,7.271,14.512,14.606,21.6,21.7,6.19,6.2,12.585,12.6,18.849,18.918a7.365,7.365,0,0,0,5.436,2.4q.161,0,.323-.007c8.506-.038,17.157-.042,25.523-.046h.013c10.2,0,20.743-.009,31.122-.076,1.485,0,2.343.227,2.872.759s.741,1.39.73,2.955c-.061,9.548-.06,19.257-.059,28.648v.017c0,9.054,0,18.415-.052,27.62a7.644,7.644,0,0,0,2.463,6.084c6.091,6.013,12.242,12.16,18.189,18.1,7.016,7.012,14.271,14.262,21.47,21.335,1.236,1.221,1.951,2.118,1.947,3.091,0,.843-.544,1.727-1.807,2.953-7.908,7.7-15.842,15.64-23.515,23.321-5.285,5.291-10.749,10.76-16.164,16.109a8.051,8.051,0,0,0-2.582,6.388c.043,8.719.047,17.582.05,26.153v.018c0,9.873.007,20.079.072,30.117,0,3.019-.931,3.556-3.554,3.557H257.7c-7.979-.056-16.091-.064-23.669-.064H222.641c-6.961,0-14.436-.006-21.926-.049-.1,0-.2-.007-.3-.007a6.5,6.5,0,0,0-4.84,2.16c-5.581,5.626-11.276,11.325-16.783,16.836-7.612,7.616-15.479,15.488-23.157,23.283C154.588,304.646,153.706,305.352,152.787,305.352Zm-31.219-81.408a4.011,4.011,0,0,1,3,1.353c3.063,3.079,6.19,6.2,9.214,9.227,5.648,5.646,11.483,11.477,17.165,17.271.736.752,1.272,1.072,1.793,1.072.6,0,1.183-.463,1.864-1.159,5.017-5.093,10.158-10.236,15.129-15.211l.013-.013c3.631-3.633,7.386-7.39,11.068-11.1A4.281,4.281,0,0,1,184,223.963c.065,0,.131,0,.2,0,5.225.03,10.362.033,16.054.033h6.137c4.8,0,9.966.005,15.2.042h.072c1.724,0,2.336-.353,2.336-2.334-.042-6.56-.044-13.23-.046-19.68v-.035c0-5.644,0-11.48-.032-17.221a5.279,5.279,0,0,1,1.692-4.193c3.562-3.518,7.148-7.108,10.616-10.58,5.032-5.037,10.236-10.246,15.423-15.3.829-.805,1.184-1.385,1.186-1.938,0-.638-.466-1.228-1.278-2.03-4.722-4.639-9.48-9.394-14.081-13.992-3.906-3.9-7.944-7.939-11.945-11.889a5.017,5.017,0,0,1-1.614-3.993c.035-6.035.034-12.156.033-18.075,0-6.177,0-12.565.038-18.861a2.606,2.606,0,0,0-.479-1.939,2.544,2.544,0,0,0-1.885-.5c-6.867.045-13.843.048-20.589.051-5.445,0-11.065.005-16.591.029q-.106,0-.213,0a4.834,4.834,0,0,1-3.568-1.577c-4.108-4.147-8.3-8.344-12.358-12.4l-.009-.009-.012-.012c-4.651-4.655-9.46-9.468-14.165-14.23-.594-.608-1-.856-1.4-.856s-.795.248-1.4.856c-4.591,4.641-9.271,9.325-13.8,13.855-4.183,4.187-8.509,8.516-12.753,12.8a4.888,4.888,0,0,1-3.575,1.564c-.074,0-.147,0-.221-.005-5.294-.032-10.515-.035-16.3-.035h-3.814c-6.068,0-11.541,0-17.065-.037h-.09c-1.733,0-2.349.352-2.349,2.328.045,6.9.048,13.914.051,20.7,0,5.477.005,11.13.029,16.689a4.525,4.525,0,0,1-1.494,3.571c-4.015,3.981-8.069,8.034-11.989,11.954-4.742,4.741-9.645,9.643-14.5,14.44-.7.676-.979,1.135-.981,1.586s.281.922.946,1.577c4.629,4.556,9.294,9.218,13.805,13.727,4.1,4.1,8.336,8.333,12.537,12.477a5.249,5.249,0,0,1,1.677,4.169c-.034,6.2-.034,12.5-.034,18.594s0,12.388-.034,18.579a2.41,2.41,0,0,0,.408,1.73,2.3,2.3,0,0,0,1.683.428c2.509-.048,5.258-.07,8.652-.07,1.727,0,3.484.006,5.183.011h.069c1.715.005,3.488.011,5.249.011q2.443,0,4.888.005t4.9.005c3.578,0,6.335-.012,8.938-.04Q121.455,223.944,121.569,223.944Z" transform="translate(-175.828 558.148)" fill="#fff" opacity="0.49"/>
        <path id="Subtraction_3" data-name="Subtraction 3" d="M152.787,305.352c-.783,0-1.624-.5-2.729-1.635-8.58-8.747-17.394-17.556-25.917-26.076-4.686-4.684-9.532-9.528-14.282-14.3a6.126,6.126,0,0,0-4.58-2.061c-.114,0-.229,0-.342.01-3.957.042-8.139.061-13.562.061q-3.749,0-7.493-.008t-7.477-.008c-2.645,0-5.336-.008-7.938-.016h-.02c-2.607-.008-5.3-.016-7.96-.016-5.211,0-9.426.034-13.264.107a3.5,3.5,0,0,1-2.564-.652,3.674,3.674,0,0,1-.623-2.635c.051-9.435.051-19.032.051-28.314s0-18.885.051-28.335a7.988,7.988,0,0,0-2.554-6.351c-6.393-6.308-12.849-12.761-19.093-19-6.882-6.879-14-13.991-21.05-20.929-1.012-1-1.442-1.718-1.44-2.4s.436-1.387,1.494-2.415c7.369-7.281,14.812-14.723,22.011-21.92,6.012-6.01,12.223-12.219,18.355-18.3a6.893,6.893,0,0,0,2.275-5.442C44.1,96.171,44.1,87.492,44.092,79.1v-.013c0-10.276-.009-20.9-.075-31.351,0-3.012.938-3.548,3.578-3.548h.135c7.957.05,15.985.057,23.476.057h5.36c9.12,0,18.546,0,27.822.054q.167.007.333.007a7.454,7.454,0,0,0,5.454-2.385c6.494-6.556,13.12-13.188,19.528-19.6,6.871-6.876,13.975-13.987,20.93-21.018.916-.925,1.532-1.3,2.127-1.3s1.222.377,2.128,1.3c7.183,7.271,14.512,14.606,21.6,21.7,6.19,6.2,12.585,12.6,18.849,18.918a7.365,7.365,0,0,0,5.436,2.4q.161,0,.323-.007c8.506-.038,17.157-.042,25.523-.046h.013c10.2,0,20.743-.009,31.122-.076,1.485,0,2.343.227,2.872.759s.741,1.39.73,2.955c-.061,9.548-.06,19.257-.059,28.648v.017c0,9.054,0,18.415-.052,27.62a7.644,7.644,0,0,0,2.463,6.084c6.091,6.013,12.242,12.16,18.189,18.1,7.016,7.012,14.271,14.262,21.47,21.335,1.236,1.221,1.951,2.118,1.947,3.091,0,.843-.544,1.727-1.807,2.953-7.908,7.7-15.842,15.64-23.515,23.321-5.285,5.291-10.749,10.76-16.164,16.109a8.051,8.051,0,0,0-2.582,6.388c.043,8.719.047,17.582.05,26.153v.018c0,9.873.007,20.079.072,30.117,0,3.019-.931,3.556-3.554,3.557H257.7c-7.979-.056-16.091-.064-23.669-.064H222.641c-6.961,0-14.436-.006-21.926-.049-.1,0-.2-.007-.3-.007a6.5,6.5,0,0,0-4.84,2.16c-5.581,5.626-11.276,11.325-16.783,16.836-7.612,7.616-15.479,15.488-23.157,23.283C154.588,304.646,153.706,305.352,152.787,305.352Zm-31.219-81.408a4.011,4.011,0,0,1,3,1.353c3.063,3.079,6.19,6.2,9.214,9.227,5.648,5.646,11.483,11.477,17.165,17.271.736.752,1.272,1.072,1.793,1.072.6,0,1.183-.463,1.864-1.159,5.017-5.093,10.158-10.236,15.129-15.211l.013-.013c3.631-3.633,7.386-7.39,11.068-11.1A4.281,4.281,0,0,1,184,223.963c.065,0,.131,0,.2,0,5.225.03,10.362.033,16.054.033h6.137c4.8,0,9.966.005,15.2.042h.072c1.724,0,2.336-.353,2.336-2.334-.042-6.56-.044-13.23-.046-19.68v-.035c0-5.644,0-11.48-.032-17.221a5.279,5.279,0,0,1,1.692-4.193c3.562-3.518,7.148-7.108,10.616-10.58,5.032-5.037,10.236-10.246,15.423-15.3.829-.805,1.184-1.385,1.186-1.938,0-.638-.466-1.228-1.278-2.03-4.722-4.639-9.48-9.394-14.081-13.992-3.906-3.9-7.944-7.939-11.945-11.889a5.017,5.017,0,0,1-1.614-3.993c.035-6.035.034-12.156.033-18.075,0-6.177,0-12.565.038-18.861a2.606,2.606,0,0,0-.479-1.939,2.544,2.544,0,0,0-1.885-.5c-6.867.045-13.843.048-20.589.051-5.445,0-11.065.005-16.591.029q-.106,0-.213,0a4.834,4.834,0,0,1-3.568-1.577c-4.108-4.147-8.3-8.344-12.358-12.4l-.009-.009-.012-.012c-4.651-4.655-9.46-9.468-14.165-14.23-.594-.608-1-.856-1.4-.856s-.795.248-1.4.856c-4.591,4.641-9.271,9.325-13.8,13.855-4.183,4.187-8.509,8.516-12.753,12.8a4.888,4.888,0,0,1-3.575,1.564c-.074,0-.147,0-.221-.005-5.294-.032-10.515-.035-16.3-.035h-3.814c-6.068,0-11.541,0-17.065-.037h-.09c-1.733,0-2.349.352-2.349,2.328.045,6.9.048,13.914.051,20.7,0,5.477.005,11.13.029,16.689a4.525,4.525,0,0,1-1.494,3.571c-4.015,3.981-8.069,8.034-11.989,11.954-4.742,4.741-9.645,9.643-14.5,14.44-.7.676-.979,1.135-.981,1.586s.281.922.946,1.577c4.629,4.556,9.294,9.218,13.805,13.727,4.1,4.1,8.336,8.333,12.537,12.477a5.249,5.249,0,0,1,1.677,4.169c-.034,6.2-.034,12.5-.034,18.594s0,12.388-.034,18.579a2.41,2.41,0,0,0,.408,1.73,2.3,2.3,0,0,0,1.683.428c2.509-.048,5.258-.07,8.652-.07,1.727,0,3.484.006,5.183.011h.069c1.715.005,3.488.011,5.249.011q2.443,0,4.888.005t4.9.005c3.578,0,6.335-.012,8.938-.04Q121.455,223.944,121.569,223.944Z" transform="translate(263.803 558.148)" fill="#fff" opacity="0.49"/>
        <path id="Subtraction_5" data-name="Subtraction 5" d="M152.787,305.352c-.783,0-1.624-.5-2.729-1.635-8.58-8.747-17.394-17.556-25.917-26.076-4.686-4.684-9.532-9.528-14.282-14.3a6.126,6.126,0,0,0-4.58-2.061c-.114,0-.229,0-.342.01-3.957.042-8.139.061-13.562.061q-3.749,0-7.493-.008t-7.477-.008c-2.645,0-5.336-.008-7.938-.016h-.02c-2.607-.008-5.3-.016-7.96-.016-5.211,0-9.426.034-13.264.107a3.5,3.5,0,0,1-2.564-.652,3.674,3.674,0,0,1-.623-2.635c.051-9.435.051-19.032.051-28.314s0-18.885.051-28.335a7.988,7.988,0,0,0-2.554-6.351c-6.393-6.308-12.849-12.761-19.093-19-6.882-6.879-14-13.991-21.05-20.929-1.012-1-1.442-1.718-1.44-2.4s.436-1.387,1.494-2.415c7.369-7.281,14.812-14.723,22.011-21.92,6.012-6.01,12.223-12.219,18.355-18.3a6.893,6.893,0,0,0,2.275-5.442C44.1,96.171,44.1,87.492,44.092,79.1v-.013c0-10.276-.009-20.9-.075-31.351,0-3.012.938-3.548,3.578-3.548h.135c7.957.05,15.985.057,23.476.057h5.36c9.12,0,18.546,0,27.822.054q.167.007.333.007a7.454,7.454,0,0,0,5.454-2.385c6.494-6.556,13.12-13.188,19.528-19.6,6.871-6.876,13.975-13.987,20.93-21.018.916-.925,1.532-1.3,2.127-1.3s1.222.377,2.128,1.3c7.183,7.271,14.512,14.606,21.6,21.7,6.19,6.2,12.585,12.6,18.849,18.918a7.365,7.365,0,0,0,5.436,2.4q.161,0,.323-.007c8.506-.038,17.157-.042,25.523-.046h.013c10.2,0,20.743-.009,31.122-.076,1.485,0,2.343.227,2.872.759s.741,1.39.73,2.955c-.061,9.548-.06,19.257-.059,28.648v.017c0,9.054,0,18.415-.052,27.62a7.644,7.644,0,0,0,2.463,6.084c6.091,6.013,12.242,12.16,18.189,18.1,7.016,7.012,14.271,14.262,21.47,21.335,1.236,1.221,1.951,2.118,1.947,3.091,0,.843-.544,1.727-1.807,2.953-7.908,7.7-15.842,15.64-23.515,23.321-5.285,5.291-10.749,10.76-16.164,16.109a8.051,8.051,0,0,0-2.582,6.388c.043,8.719.047,17.582.05,26.153v.018c0,9.873.007,20.079.072,30.117,0,3.019-.931,3.556-3.554,3.557H257.7c-7.979-.056-16.091-.064-23.669-.064H222.641c-6.961,0-14.436-.006-21.926-.049-.1,0-.2-.007-.3-.007a6.5,6.5,0,0,0-4.84,2.16c-5.581,5.626-11.276,11.325-16.783,16.836-7.612,7.616-15.479,15.488-23.157,23.283C154.588,304.646,153.706,305.352,152.787,305.352Zm-31.219-81.408a4.011,4.011,0,0,1,3,1.353c3.063,3.079,6.19,6.2,9.214,9.227,5.648,5.646,11.483,11.477,17.165,17.271.736.752,1.272,1.072,1.793,1.072.6,0,1.183-.463,1.864-1.159,5.017-5.093,10.158-10.236,15.129-15.211l.013-.013c3.631-3.633,7.386-7.39,11.068-11.1A4.281,4.281,0,0,1,184,223.963c.065,0,.131,0,.2,0,5.225.03,10.362.033,16.054.033h6.137c4.8,0,9.966.005,15.2.042h.072c1.724,0,2.336-.353,2.336-2.334-.042-6.56-.044-13.23-.046-19.68v-.035c0-5.644,0-11.48-.032-17.221a5.279,5.279,0,0,1,1.692-4.193c3.562-3.518,7.148-7.108,10.616-10.58,5.032-5.037,10.236-10.246,15.423-15.3.829-.805,1.184-1.385,1.186-1.938,0-.638-.466-1.228-1.278-2.03-4.722-4.639-9.48-9.394-14.081-13.992-3.906-3.9-7.944-7.939-11.945-11.889a5.017,5.017,0,0,1-1.614-3.993c.035-6.035.034-12.156.033-18.075,0-6.177,0-12.565.038-18.861a2.606,2.606,0,0,0-.479-1.939,2.544,2.544,0,0,0-1.885-.5c-6.867.045-13.843.048-20.589.051-5.445,0-11.065.005-16.591.029q-.106,0-.213,0a4.834,4.834,0,0,1-3.568-1.577c-4.108-4.147-8.3-8.344-12.358-12.4l-.009-.009-.012-.012c-4.651-4.655-9.46-9.468-14.165-14.23-.594-.608-1-.856-1.4-.856s-.795.248-1.4.856c-4.591,4.641-9.271,9.325-13.8,13.855-4.183,4.187-8.509,8.516-12.753,12.8a4.888,4.888,0,0,1-3.575,1.564c-.074,0-.147,0-.221-.005-5.294-.032-10.515-.035-16.3-.035h-3.814c-6.068,0-11.541,0-17.065-.037h-.09c-1.733,0-2.349.352-2.349,2.328.045,6.9.048,13.914.051,20.7,0,5.477.005,11.13.029,16.689a4.525,4.525,0,0,1-1.494,3.571c-4.015,3.981-8.069,8.034-11.989,11.954-4.742,4.741-9.645,9.643-14.5,14.44-.7.676-.979,1.135-.981,1.586s.281.922.946,1.577c4.629,4.556,9.294,9.218,13.805,13.727,4.1,4.1,8.336,8.333,12.537,12.477a5.249,5.249,0,0,1,1.677,4.169c-.034,6.2-.034,12.5-.034,18.594s0,12.388-.034,18.579a2.41,2.41,0,0,0,.408,1.73,2.3,2.3,0,0,0,1.683.428c2.509-.048,5.258-.07,8.652-.07,1.727,0,3.484.006,5.183.011h.069c1.715.005,3.488.011,5.249.011q2.443,0,4.888.005t4.9.005c3.578,0,6.335-.012,8.938-.04Q121.455,223.944,121.569,223.944Z" transform="translate(43.843 710.824)" fill="#fff" opacity="0.49"/>
        <path id="Subtraction_4" data-name="Subtraction 4" d="M152.787,305.352c-.783,0-1.624-.5-2.729-1.635-8.58-8.747-17.394-17.556-25.917-26.076-4.686-4.684-9.532-9.528-14.282-14.3a6.126,6.126,0,0,0-4.58-2.061c-.114,0-.229,0-.342.01-3.957.042-8.139.061-13.562.061q-3.749,0-7.493-.008t-7.477-.008c-2.645,0-5.336-.008-7.938-.016h-.02c-2.607-.008-5.3-.016-7.96-.016-5.211,0-9.426.034-13.264.107a3.5,3.5,0,0,1-2.564-.652,3.674,3.674,0,0,1-.623-2.635c.051-9.435.051-19.032.051-28.314s0-18.885.051-28.335a7.988,7.988,0,0,0-2.554-6.351c-6.393-6.308-12.849-12.761-19.093-19-6.882-6.879-14-13.991-21.05-20.929-1.012-1-1.442-1.718-1.44-2.4s.436-1.387,1.494-2.415c7.369-7.281,14.812-14.723,22.011-21.92,6.012-6.01,12.223-12.219,18.355-18.3a6.893,6.893,0,0,0,2.275-5.442C44.1,96.171,44.1,87.492,44.092,79.1v-.013c0-10.276-.009-20.9-.075-31.351,0-3.012.938-3.548,3.578-3.548h.135c7.957.05,15.985.057,23.476.057h5.36c9.12,0,18.546,0,27.822.054q.167.007.333.007a7.454,7.454,0,0,0,5.454-2.385c6.494-6.556,13.12-13.188,19.528-19.6,6.871-6.876,13.975-13.987,20.93-21.018.916-.925,1.532-1.3,2.127-1.3s1.222.377,2.128,1.3c7.183,7.271,14.512,14.606,21.6,21.7,6.19,6.2,12.585,12.6,18.849,18.918a7.365,7.365,0,0,0,5.436,2.4q.161,0,.323-.007c8.506-.038,17.157-.042,25.523-.046h.013c10.2,0,20.743-.009,31.122-.076,1.485,0,2.343.227,2.872.759s.741,1.39.73,2.955c-.061,9.548-.06,19.257-.059,28.648v.017c0,9.054,0,18.415-.052,27.62a7.644,7.644,0,0,0,2.463,6.084c6.091,6.013,12.242,12.16,18.189,18.1,7.016,7.012,14.271,14.262,21.47,21.335,1.236,1.221,1.951,2.118,1.947,3.091,0,.843-.544,1.727-1.807,2.953-7.908,7.7-15.842,15.64-23.515,23.321-5.285,5.291-10.749,10.76-16.164,16.109a8.051,8.051,0,0,0-2.582,6.388c.043,8.719.047,17.582.05,26.153v.018c0,9.873.007,20.079.072,30.117,0,3.019-.931,3.556-3.554,3.557H257.7c-7.979-.056-16.091-.064-23.669-.064H222.641c-6.961,0-14.436-.006-21.926-.049-.1,0-.2-.007-.3-.007a6.5,6.5,0,0,0-4.84,2.16c-5.581,5.626-11.276,11.325-16.783,16.836-7.612,7.616-15.479,15.488-23.157,23.283C154.588,304.646,153.706,305.352,152.787,305.352Zm-31.219-81.408a4.011,4.011,0,0,1,3,1.353c3.063,3.079,6.19,6.2,9.214,9.227,5.648,5.646,11.483,11.477,17.165,17.271.736.752,1.272,1.072,1.793,1.072.6,0,1.183-.463,1.864-1.159,5.017-5.093,10.158-10.236,15.129-15.211l.013-.013c3.631-3.633,7.386-7.39,11.068-11.1A4.281,4.281,0,0,1,184,223.963c.065,0,.131,0,.2,0,5.225.03,10.362.033,16.054.033h6.137c4.8,0,9.966.005,15.2.042h.072c1.724,0,2.336-.353,2.336-2.334-.042-6.56-.044-13.23-.046-19.68v-.035c0-5.644,0-11.48-.032-17.221a5.279,5.279,0,0,1,1.692-4.193c3.562-3.518,7.148-7.108,10.616-10.58,5.032-5.037,10.236-10.246,15.423-15.3.829-.805,1.184-1.385,1.186-1.938,0-.638-.466-1.228-1.278-2.03-4.722-4.639-9.48-9.394-14.081-13.992-3.906-3.9-7.944-7.939-11.945-11.889a5.017,5.017,0,0,1-1.614-3.993c.035-6.035.034-12.156.033-18.075,0-6.177,0-12.565.038-18.861a2.606,2.606,0,0,0-.479-1.939,2.544,2.544,0,0,0-1.885-.5c-6.867.045-13.843.048-20.589.051-5.445,0-11.065.005-16.591.029q-.106,0-.213,0a4.834,4.834,0,0,1-3.568-1.577c-4.108-4.147-8.3-8.344-12.358-12.4l-.009-.009-.012-.012c-4.651-4.655-9.46-9.468-14.165-14.23-.594-.608-1-.856-1.4-.856s-.795.248-1.4.856c-4.591,4.641-9.271,9.325-13.8,13.855-4.183,4.187-8.509,8.516-12.753,12.8a4.888,4.888,0,0,1-3.575,1.564c-.074,0-.147,0-.221-.005-5.294-.032-10.515-.035-16.3-.035h-3.814c-6.068,0-11.541,0-17.065-.037h-.09c-1.733,0-2.349.352-2.349,2.328.045,6.9.048,13.914.051,20.7,0,5.477.005,11.13.029,16.689a4.525,4.525,0,0,1-1.494,3.571c-4.015,3.981-8.069,8.034-11.989,11.954-4.742,4.741-9.645,9.643-14.5,14.44-.7.676-.979,1.135-.981,1.586s.281.922.946,1.577c4.629,4.556,9.294,9.218,13.805,13.727,4.1,4.1,8.336,8.333,12.537,12.477a5.249,5.249,0,0,1,1.677,4.169c-.034,6.2-.034,12.5-.034,18.594s0,12.388-.034,18.579a2.41,2.41,0,0,0,.408,1.73,2.3,2.3,0,0,0,1.683.428c2.509-.048,5.258-.07,8.652-.07,1.727,0,3.484.006,5.183.011h.069c1.715.005,3.488.011,5.249.011q2.443,0,4.888.005t4.9.005c3.578,0,6.335-.012,8.938-.04Q121.455,223.944,121.569,223.944Z" transform="translate(-186.117 -44.852)" fill="#fff" opacity="0.49"/>
      </g>
    </g>
  </g>
</svg>
