<svg id="Group_11" data-name="Group 11" xmlns="http://www.w3.org/2000/svg" width="35.419" height="35.445" viewBox="0 0 35.419 35.445">
  <path id="Subtraction_7" data-name="Subtraction 7" d="M17.724,35.445c-.091,0-.188-.059-.317-.19-1-1.015-2.018-2.038-3.007-3.027-.544-.544-1.106-1.106-1.657-1.66a.711.711,0,0,0-.531-.239h-.04c-.459,0-.944.007-1.573.007H8.863l-.921,0h0l-.923,0c-.6,0-1.094,0-1.539.012a.406.406,0,0,1-.3-.076.427.427,0,0,1-.072-.306c.006-1.1.006-2.209.006-3.287s0-2.192.006-3.289a.928.928,0,0,0-.3-.737c-.742-.732-1.491-1.481-2.215-2.206-.8-.8-1.624-1.624-2.442-2.429C.05,17.9,0,17.815,0,17.735s.051-.161.173-.28c.855-.845,1.718-1.709,2.553-2.544.7-.7,1.418-1.418,2.129-2.124a.8.8,0,0,0,.264-.632c0-.991,0-2-.005-2.973h0c0-1.193,0-2.426-.009-3.639,0-.35.109-.412.415-.412h.016c.923.006,1.854.007,2.723.007h.622c1.058,0,2.151,0,3.228.006h.039a.865.865,0,0,0,.633-.277c.753-.761,1.522-1.531,2.265-2.275.8-.8,1.621-1.624,2.428-2.44.106-.107.178-.151.247-.151s.142.044.247.151c.833.844,1.684,1.7,2.506,2.519.718.719,1.46,1.462,2.187,2.2a.854.854,0,0,0,.631.279h.037c.987,0,1.99,0,2.961-.005h0c1.183,0,2.406,0,3.61-.009a.45.45,0,0,1,.333.088.461.461,0,0,1,.085.343c-.007,1.108-.007,2.235-.007,3.325v0c0,1.051,0,2.138-.006,3.206a.888.888,0,0,0,.286.706c.707.7,1.42,1.411,2.11,2.1.814.814,1.655,1.655,2.491,2.477.143.142.226.246.226.359,0,.1-.063.2-.21.343-.917.894-1.838,1.816-2.728,2.707-.613.614-1.247,1.249-1.875,1.87a.935.935,0,0,0-.3.742c.005,1.012.005,2.041.006,3.036v0c0,1.146,0,2.331.008,3.5,0,.35-.108.413-.412.413h-.013c-.926-.007-1.867-.007-2.746-.007H25.828c-.808,0-1.675,0-2.544-.006h-.035a.754.754,0,0,0-.561.251c-.647.653-1.308,1.315-1.947,1.954-.883.884-1.8,1.8-2.686,2.7C17.933,35.363,17.831,35.445,17.724,35.445ZM14.1,25.995a.465.465,0,0,1,.348.157c.355.357.718.72,1.069,1.071.655.655,1.332,1.332,1.991,2,.085.087.148.124.208.124s.137-.054.216-.135c.582-.591,1.178-1.188,1.755-1.766h0c.421-.422.857-.858,1.284-1.289A.5.5,0,0,1,21.345,26h.023c.606,0,1.2,0,1.862,0h.712c.557,0,1.156,0,1.764,0h.008c.2,0,.271-.041.271-.271,0-.761-.005-1.536-.005-2.284v0c0-.655,0-1.333,0-2a.613.613,0,0,1,.2-.487c.413-.408.829-.825,1.232-1.228.584-.585,1.187-1.189,1.789-1.776.1-.093.137-.161.138-.225s-.054-.142-.148-.236c-.548-.538-1.1-1.09-1.634-1.624-.453-.453-.922-.922-1.386-1.38a.583.583,0,0,1-.187-.464c0-.7,0-1.411,0-2.1,0-.717,0-1.458,0-2.189a.3.3,0,0,0-.056-.225.3.3,0,0,0-.219-.058c-.8.005-1.606.006-2.388.006-.632,0-1.284,0-1.925,0h-.025a.561.561,0,0,1-.414-.183c-.477-.481-.963-.969-1.434-1.44h0c-.54-.54-1.1-1.1-1.643-1.652-.069-.071-.116-.1-.162-.1s-.092.029-.162.1c-.533.539-1.076,1.082-1.6,1.608-.485.486-.987.988-1.479,1.486a.567.567,0,0,1-.415.182h-.026c-.614,0-1.22,0-1.891,0H11.7c-.7,0-1.339,0-1.98,0h-.01c-.2,0-.272.041-.272.27.005.8.006,1.615.006,2.4,0,.636,0,1.292,0,1.937a.525.525,0,0,1-.173.415c-.466.462-.936.933-1.391,1.388-.55.55-1.119,1.119-1.682,1.676-.081.078-.114.132-.114.184s.033.107.11.183c.537.529,1.078,1.07,1.6,1.593.475.476.967.967,1.454,1.448a.609.609,0,0,1,.195.484c0,.72,0,1.451,0,2.158s0,1.438,0,2.157a.28.28,0,0,0,.047.2.266.266,0,0,0,.2.05c.291-.006.61-.008,1-.008H13.04c.415,0,.735,0,1.037,0Z" fill="#fff"/>
  <text id="_2" data-name="2" transform="translate(21.209 22.722)" fill="#fff" font-size="16" font-family="Tajawal-Bold, Tajawal" font-weight="700"><tspan x="-7" y="0">2</tspan></text>
</svg>
