<svg xmlns="http://www.w3.org/2000/svg" width="286" height="267" viewBox="0 0 286 267">
  <g id="Group_31" data-name="Group 31" transform="translate(-45 -212)">
    <rect id="Rectangle_12" data-name="Rectangle 12" width="286" height="267" rx="8" transform="translate(45 212)" fill="#ffd434" opacity="0.8"/>
    <g id="Group_9" data-name="Group 9" transform="translate(21.5 16.656)">
      <text id="الأربعين_النووية" data-name="الأربعين النووية" transform="translate(74 395.928)" fill="#fff" font-size="27" font-family="Tajawal-Bold, Tajawal" font-weight="700"><tspan x="0" y="0">الأربعين النووية</tspan></text>
      <g id="islamic" transform="translate(109.418 250.761)">
        <path id="Path_2" data-name="Path 2" d="M105.791,341.379c-3.153,0-6.309-.036-9.461.024-.87,0-1.039-.247-1.033-1.066.033-6.119,0-12.241.033-18.369a2.6,2.6,0,0,0-.828-2.06c-4.357-4.3-8.654-8.657-13.015-12.949-.647-.638-.6-.961.018-1.563,4.381-4.33,8.715-8.706,13.087-13.042a2.243,2.243,0,0,0,.738-1.765c-.027-6.158,0-12.316-.039-18.474,0-.97.283-1.156,1.2-1.15,6.119.039,12.241,0,18.369.036a2.409,2.409,0,0,0,1.876-.771c4.36-4.4,8.76-8.766,13.117-13.171.545-.551.816-.575,1.379,0,4.354,4.409,8.754,8.769,13.114,13.171a2.382,2.382,0,0,0,1.867.777c6.119-.027,12.241,0,18.369-.039.964,0,1.174.3,1.168,1.2-.039,6.083,0,12.169-.036,18.251a2.487,2.487,0,0,0,.8,1.972c4.3,4.246,8.546,8.552,12.858,12.789.759.75.9,1.126.045,1.96-4.33,4.216-8.564,8.537-12.864,12.786a2.62,2.62,0,0,0-.837,2.072c.03,6.086,0,12.169.039,18.251,0,.964-.274,1.159-1.189,1.153-6.158-.042-12.316,0-18.474-.036a2.108,2.108,0,0,0-1.668.7c-4.309,4.345-8.657,8.651-12.949,13.009-.684.7-1.054.813-1.807.042-4.312-4.4-8.7-8.733-13.033-13.093a1.984,1.984,0,0,0-1.6-.665C111.949,341.4,108.869,341.379,105.791,341.379Z" transform="translate(-76.432 -249.077)" fill="#fff"/>
        <path id="Path_5" data-name="Path 5" d="M158.64,261.623a1.671,1.671,0,1,1,1.683-1.632A1.713,1.713,0,0,1,158.64,261.623Z" transform="translate(-129.519 -250.225)" fill="#f9ba84"/>
        <path id="Path_6" data-name="Path 6" d="M392.342,499.452a1.665,1.665,0,1,1-1.584-1.716A1.707,1.707,0,0,1,392.342,499.452Z" transform="translate(-291.679 -417.572)" fill="#f9ba84"/>
        <path id="Path_7" data-name="Path 7" d="M309.647,261.63a1.671,1.671,0,0,1-.142-3.34,1.84,1.84,0,0,1,1.78,1.671A1.722,1.722,0,0,1,309.647,261.63Z" transform="translate(-234.995 -250.232)" fill="#f9ba84"/>
        <path id="Path_8" data-name="Path 8" d="M392.289,330.039a1.551,1.551,0,0,1-1.608,1.644,1.611,1.611,0,1,1-.093-3.216A1.641,1.641,0,0,1,392.289,330.039Z" transform="translate(-291.626 -299.276)" fill="#f9ba84"/>
        <path id="Path_9" data-name="Path 9" d="M328.277,564.2a1.542,1.542,0,0,1,1.566,1.674,1.611,1.611,0,1,1-3.216-.09,1.533,1.533,0,0,1,1.65-1.584Z" transform="translate(-248.076 -464.02)" fill="#f9ba83"/>
        <path id="Path_10" data-name="Path 10" d="M154.906,567.909a1.677,1.677,0,0,1,1.635,1.65,1.59,1.59,0,0,1-1.692,1.566,1.611,1.611,0,1,1,.057-3.216Z" transform="translate(-126.857 -466.613)" fill="#f9ba84"/>
        <path id="Path_11" data-name="Path 11" d="M88.861,342.8a1.53,1.53,0,0,1-1.644-1.593,1.462,1.462,0,0,1,1.56-1.632,1.494,1.494,0,0,1,1.653,1.557,1.542,1.542,0,0,1-1.569,1.668Z" transform="translate(-80.761 -307.042)" fill="#f9ba83"/>
        <path id="Path_12" data-name="Path 12" d="M92.561,482.783a1.506,1.506,0,0,1-1.644-1.566,1.47,1.47,0,0,1,1.548-1.647,1.608,1.608,0,1,1,.1,3.213Z" transform="translate(-83.347 -404.878)" fill="#f9ba83"/>
        <path id="Path_13" data-name="Path 13" d="M163.627,316.818c1.527-1.551,3.081-3.075,4.568-4.661.545-.578.855-.446,1.343.048,2.767,2.8,5.574,5.571,8.338,8.377a2.234,2.234,0,0,0,1.771.741c3.752-.033,7.507.042,11.256-.048,1.2-.027,1.418.364,1.4,1.457-.063,3.752,0,7.507-.039,11.259a2.129,2.129,0,0,0,.7,1.677c2.779,2.737,5.5,5.532,8.3,8.251.69.671.635,1.036-.024,1.671-2.647,2.551-5.237,5.158-7.85,7.748a3.527,3.527,0,0,1-1.963.343H172.059a10.793,10.793,0,0,0-1.463.045c-.461.06-.97.163-.949.741s.533.653.991.714a10.634,10.634,0,0,0,1.349.039H191c1.226.06,1.346.181,1.349,1.376v10.582c0,.325.108.678-.126.979-4.165,0-8.332.039-12.5,0a2.487,2.487,0,0,0-1.96.828c-2.68,2.734-5.42,5.4-8.091,8.152-.644.665-.973.575-1.56-.03-1.825-1.888-3.713-3.716-5.577-5.565.078-.6.6-.473.952-.506.708-.066,1.421,0,2.129-.036.548-.033,1.3.033,1.31-.714s-.753-.828-1.346-.855c-1.307-.06-2.617,0-3.915-.024a2.4,2.4,0,0,1-1.611-.34,1.979,1.979,0,0,0-1.9-.9c-3.9.042-7.8,0-11.7.039-.84,0-1.09-.226-1.081-1.072.045-3.9,0-7.8.036-11.7a2.352,2.352,0,0,0-.786-1.864c-2.779-2.734-5.526-5.5-8.284-8.26-.34-.343-.747-.578-.163-1.144,2.71-2.635,5.387-5.318,8.076-7.986a3.3,3.3,0,0,1,1.852-.337h12.045a4.619,4.619,0,0,0,1.56-.142c.373-.129.7-.343.644-.8s-.388-.509-.738-.563a8.07,8.07,0,0,0-1.235-.051H147.143c-.6,0-1.2.105-1.707-.367,0-3.915,0-7.808-.042-11.714,0-.8.334-.9,1.012-.9,3.641.024,7.284-.045,10.922.042a3.259,3.259,0,0,0,3.011-1.283,6.211,6.211,0,0,1,.822-.765,4.069,4.069,0,0,1,2.307-.3,22.088,22.088,0,0,0,2.361-.042c.506-.051,1.018-.19.979-.843-.036-.587-.521-.665-.988-.7s-.9.015-1.346-.048C164.115,317.291,163.66,317.363,163.627,316.818Z" transform="translate(-114.779 -287.612)" fill="#ffd434"/>
        <path id="Path_14" data-name="Path 14" d="M269.311,464.6c0-3.824-.015-7.652.036-11.476,0-.9-.247-1.141-1.135-1.135-6.625.033-13.274.018-19.914.018h-.786c-.744,0-1.31-.367-1.334-1.075-.027-.78.548-1.177,1.343-1.177h7.2l15.749.015a3.133,3.133,0,0,0-.937,2.71c.051,3.659.027,7.32,0,10.979C269.524,463.837,269.708,464.279,269.311,464.6Z" transform="translate(-191.855 -384.038)" fill="#f4ad09"/>
        <path id="Path_15" data-name="Path 15" d="M164.805,385.32c4.6,0,9.209.021,13.813,0,.8,0,1.65,0,1.638,1.024,0,.964-.792,1.244-1.677,1.241H163.64C164.137,386.886,165.025,386.386,164.805,385.32Z" transform="translate(-134.173 -339.01)" fill="#f4ad09"/>
        <path id="Path_16" data-name="Path 16" d="M216.1,502.08c1.831,0,3.662,0,5.493.027a3.191,3.191,0,0,1,.991.111c.512.175.982.476.9,1.117a1.087,1.087,0,0,1-1.15,1.009c-.9.021-1.807,0-2.692,0-.355,0-.756-.139-1.057.2a12.347,12.347,0,0,1-2.487-2.46Z" transform="translate(-170.835 -420.61)" fill="#f4ad09"/>
        <path id="Path_17" data-name="Path 17" d="M222.276,328.52c.756.482,1.59.163,2.385.214.744.045,1.2.28,1.244,1.09s-.5,1.141-1.186,1.156c-1.635.042-3.273,0-4.908,0A17.722,17.722,0,0,1,222.276,328.52Z" transform="translate(-173.428 -299.314)" fill="#f4ad09"/>
        <path id="Path_18" data-name="Path 18" d="M186.676,416.82h9.558c.771,0,1.524.054,1.479,1.06-.036.852-.626,1.2-1.457,1.2H177.136c-.879,0-1.506-.3-1.47-1.274s.723-.988,1.448-.985Q181.894,416.826,186.676,416.82Z" transform="translate(-142.577 -361.024)" fill="#f4ad09"/>
        <path id="Path_19" data-name="Path 19" d="M142.681,313.01c.374-.38.754-.753,1.118-1.141.133-.142.209-.109.329.012.678.686,1.365,1.364,2.041,2.051a.547.547,0,0,0,.434.181c.919-.008,1.838.01,2.756-.012.295-.007.347.089.343.357-.015.919,0,1.838-.01,2.757a.521.521,0,0,0,.171.411c.68.67,1.348,1.354,2.033,2.02.169.164.156.254-.006.409-.648.624-1.282,1.263-1.922,1.9a.864.864,0,0,1-.481.084h-4.742a2.635,2.635,0,0,0-.358.011c-.113.015-.237.04-.232.181s.13.16.243.175a2.6,2.6,0,0,0,.33.01h4.656c.3.015.33.044.33.337v2.591c0,.08.027.166-.031.24-1.02,0-2.04.01-3.06,0a.609.609,0,0,0-.48.2c-.656.669-1.327,1.323-1.981,2-.158.163-.238.141-.382-.007-.447-.462-.909-.91-1.365-1.362.019-.147.147-.116.233-.124.173-.016.348,0,.521-.009.134-.008.318.008.321-.175s-.184-.2-.33-.209c-.32-.015-.641,0-.958-.006a.588.588,0,0,1-.394-.083.485.485,0,0,0-.465-.221c-.955.01-1.91,0-2.864.01-.206,0-.267-.055-.265-.262.011-.955,0-1.909.009-2.864a.576.576,0,0,0-.192-.456c-.68-.669-1.353-1.348-2.028-2.022-.083-.084-.183-.142-.04-.28.664-.645,1.319-1.3,1.977-1.955a.807.807,0,0,1,.453-.083h2.949a1.13,1.13,0,0,0,.382-.035c.091-.032.17-.084.158-.2s-.1-.125-.181-.138a1.973,1.973,0,0,0-.3-.013h-2.754c-.147,0-.295.026-.418-.09,0-.958,0-1.912-.01-2.868,0-.2.082-.221.248-.221.891.006,1.783-.011,2.674.01a.8.8,0,0,0,.737-.314,1.521,1.521,0,0,1,.2-.187,1,1,0,0,1,.565-.074,5.4,5.4,0,0,0,.578-.01c.124-.013.249-.046.24-.206-.009-.144-.128-.163-.242-.173s-.221,0-.33-.012C142.8,313.126,142.689,313.144,142.681,313.01Z" transform="translate(-135.89 -217.993)" fill="#f4ad09"/>
        <path id="Path_20" data-name="Path 20" d="M142.681,313.01c.374-.38.754-.753,1.118-1.141.133-.142.209-.109.329.012.678.686,1.365,1.364,2.041,2.051a.547.547,0,0,0,.434.181c.919-.008,1.838.01,2.756-.012.295-.007.347.089.343.357-.015.919,0,1.838-.01,2.757a.521.521,0,0,0,.171.411c.68.67,1.348,1.354,2.033,2.02.169.164.156.254-.006.409-.648.624-1.282,1.263-1.922,1.9a.864.864,0,0,1-.481.084h-4.742a2.635,2.635,0,0,0-.358.011c-.113.015-.237.04-.232.181s.13.16.243.175a2.6,2.6,0,0,0,.33.01h4.656c.3.015.33.044.33.337v2.591c0,.08.027.166-.031.24-1.02,0-2.04.01-3.06,0a.609.609,0,0,0-.48.2c-.656.669-1.327,1.323-1.981,2-.158.163-.238.141-.382-.007-.447-.462-.909-.91-1.365-1.362.019-.147.147-.116.233-.124.173-.016.348,0,.521-.009.134-.008.318.008.321-.175s-.184-.2-.33-.209c-.32-.015-.641,0-.958-.006a.588.588,0,0,1-.394-.083.485.485,0,0,0-.465-.221c-.955.01-1.91,0-2.864.01-.206,0-.267-.055-.265-.262.011-.955,0-1.909.009-2.864a.576.576,0,0,0-.192-.456c-.68-.669-1.353-1.348-2.028-2.022-.083-.084-.183-.142-.04-.28.664-.645,1.319-1.3,1.977-1.955a.807.807,0,0,1,.453-.083h2.949a1.13,1.13,0,0,0,.382-.035c.091-.032.17-.084.158-.2s-.1-.125-.181-.138a1.973,1.973,0,0,0-.3-.013h-2.754c-.147,0-.295.026-.418-.09,0-.958,0-1.912-.01-2.868,0-.2.082-.221.248-.221.891.006,1.783-.011,2.674.01a.8.8,0,0,0,.737-.314,1.521,1.521,0,0,1,.2-.187,1,1,0,0,1,.565-.074,5.4,5.4,0,0,0,.578-.01c.124-.013.249-.046.24-.206-.009-.144-.128-.163-.242-.173s-.221,0-.33-.012C142.8,313.126,142.689,313.144,142.681,313.01Z" transform="translate(-44.965 -311.776)" fill="#f4ad09"/>
      </g>
      <path id="Path_22" data-name="Path 22" d="M142.681,313.01c.374-.38.754-.753,1.118-1.141.133-.142.209-.109.329.012.678.686,1.365,1.364,2.041,2.051a.547.547,0,0,0,.434.181c.919-.008,1.838.01,2.756-.012.295-.007.347.089.343.357-.015.919,0,1.838-.01,2.757a.521.521,0,0,0,.171.411c.68.67,1.348,1.354,2.033,2.02.169.164.156.254-.006.409-.648.624-1.282,1.263-1.922,1.9a.864.864,0,0,1-.481.084h-4.742a2.635,2.635,0,0,0-.358.011c-.113.015-.237.04-.232.181s.13.16.243.175a2.6,2.6,0,0,0,.33.01h4.656c.3.015.33.044.33.337v2.591c0,.08.027.166-.031.24-1.02,0-2.04.01-3.06,0a.609.609,0,0,0-.48.2c-.656.669-1.327,1.323-1.981,2-.158.163-.238.141-.382-.007-.447-.462-.909-.91-1.365-1.362.019-.147.147-.116.233-.124.173-.016.348,0,.521-.009.134-.008.318.008.321-.175s-.184-.2-.33-.209c-.32-.015-.641,0-.958-.006a.588.588,0,0,1-.394-.083.485.485,0,0,0-.465-.221c-.955.01-1.91,0-2.864.01-.206,0-.267-.055-.265-.262.011-.955,0-1.909.009-2.864a.576.576,0,0,0-.192-.456c-.68-.669-1.353-1.348-2.028-2.022-.083-.084-.183-.142-.04-.28.664-.645,1.319-1.3,1.977-1.955a.807.807,0,0,1,.453-.083h2.949a1.13,1.13,0,0,0,.382-.035c.091-.032.17-.084.158-.2s-.1-.125-.181-.138a1.973,1.973,0,0,0-.3-.013h-2.754c-.147,0-.295.026-.418-.09,0-.958,0-1.912-.01-2.868,0-.2.082-.221.248-.221.891.006,1.783-.011,2.674.01a.8.8,0,0,0,.737-.314,1.521,1.521,0,0,1,.2-.187,1,1,0,0,1,.565-.074,5.4,5.4,0,0,0,.578-.01c.124-.013.249-.046.24-.206-.009-.144-.128-.163-.242-.173s-.221,0-.33-.012C142.8,313.126,142.689,313.144,142.681,313.01Z" transform="translate(-26.472 32.768)" fill="#f4ad09"/>
      <text id="الأربعين_النووية-2" data-name="الأربعين النووية" transform="translate(74 395.928)" fill="#fff" font-size="27" font-family="Tajawal-Bold, Tajawal" font-weight="700"><tspan x="0" y="0">الأربعين النووية</tspan></text>
    </g>
  </g>
</svg>
